<svg width="33" height="33" viewBox="0 0 33 33" fill="none" xmlns="http://www.w3.org/2000/svg">
<path fill-rule="evenodd" clip-rule="evenodd" d="M16.5 0C25.6 0 33 7.4 33 16.5C33 25.6 25.6 33 16.5 33C7.4 33 0 25.6 0 16.5C0 7.4 7.4 0 16.5 0ZM3.30005 16.5C3.30005 19.7 4.40005 22.6 6.30005 24.9C7.80005 22.5 11.3 17.8 17.7 16C17.2333 15.1333 16.8 14.3 16.4 13.5C10.4 15.8 5.80005 15.9 3.30005 15.7C3.30005 15.9666 3.30005 16.2333 3.30005 16.5ZM16.5 29.7C18.4 29.7 20.2 29.3 21.8 28.6C21.1 25 20 21.5 18.7 18.3C15 19.4 11.1 21.7 8.09998 26.7C10.4 28.6 13.3 29.7 16.5 29.7ZM10.9 4.59998C7.30002 6.19998 4.59995 9.50002 3.69995 13.4C6.99995 13.4 11.5 12.8 15.3 11.5C13.5 8.3 11.9 5.89998 10.9 4.59998ZM26.6 8C23.9 9.8 21.4 11.3 19 12.4C19.5333 13.4 20.0333 14.4333 20.5 15.5C23.1 15.1 26.2 15.3 29.7 16.2C29.6 13.1 28.5 10.2 26.6 8ZM24.2 27.3C27 25.2 29.1 22 29.6 18.3C28 17.9 24.9 17.4 21.4 17.8C23.3 22.6 24 26.3 24.2 27.3ZM16.5 3.30005C15.4333 3.30005 14.4 3.43328 13.4 3.69995C15.2 5.89995 16.7 8.10002 17.9 10.4C21.4 8.70002 23.6 6.99998 24.6 6.09998C22.4 4.29998 19.6 3.30005 16.5 3.30005Z" fill="#252825"/>
</svg>
