<svg width="179" height="179" viewBox="0 0 179 179" fill="none" xmlns="http://www.w3.org/2000/svg">
<path fill-rule="evenodd" clip-rule="evenodd" d="M89.5 0C138.9 0 179 40.1 179 89.5C179 138.9 138.9 179 89.5 179C40.1 179 0 138.9 0 89.5C0 40.1 40.1 0 89.5 0Z" fill="#6FC125"/>
<path fill-rule="evenodd" clip-rule="evenodd" d="M56.5 64H74.1C74.0333 63.7333 74 63.4666 74 63.2V57.3C74 55.5 75.1 54 76.5 54H101.5C102.9 54 104 55.5 104 57.3V63.2C104 63.4666 103.967 63.7333 103.9 64H121.5C125.6 64 129 67.4 129 71.5V116.5C129 120.6 125.6 124 121.5 124H56.5C52.4 124 49 120.6 49 116.5V71.5C49 67.4 52.4 64 56.5 64ZM66.5 94C66.5 106.4 76.6 116.5 89 116.5C101.4 116.5 111.5 106.4 111.5 94C111.5 81.6 101.4 71.5 89 71.5C76.6 71.5 66.5 81.6 66.5 94ZM89 79C97.3 79 104 85.7 104 94C104 102.3 97.3 109 89 109C80.7 109 74 102.3 74 94C74 85.7 80.7 79 89 79ZM84 94C84 96.8 86.2 99 89 99C91.8 99 94 96.8 94 94C94 91.2 91.8 89 89 89C86.2 89 84 91.2 84 94ZM79 61.5H99V59H79V61.5Z" fill="white"/>
</svg>
