<svg width="179" height="179" viewBox="0 0 179 179" fill="none" xmlns="http://www.w3.org/2000/svg">
<circle cx="89.5" cy="89.5" r="89.5" fill="#E48F23"/>
<path fill-rule="evenodd" clip-rule="evenodd" d="M130.2 74.7C132.9 74.7 135 76.9 135 79.5V122.2C135 124.9 132.9 127 130.2 127H73.2C70.6 127 68.5 124.9 68.5 122.2V119.9H125.5V81.9H113.6V74.7H130.2ZM63.7 51H106.5C109.1 51 111.2 53.1 111.2 55.7V112.7C111.2 115.4 109.1 117.5 106.5 117.5H63.7C61.1 117.5 59 115.4 59 112.7V55.7C59 53.1 61.1 51 63.7 51ZM66.1 108H104.1V58.1H66.1V108ZM82.7 112.8C82.7 114.1 83.8 115.1 85.1 115.1C86.4 115.1 87.5 114.1 87.5 112.8C87.5 111.5 86.4 110.4 85.1 110.4C83.8 110.4 82.7 111.5 82.7 112.8ZM127.8 100.9C127.8 102.2 128.9 103.3 130.2 103.3C131.5 103.3 132.6 102.2 132.6 100.9C132.6 99.6 131.5 98.5 130.2 98.5C128.9 98.5 127.8 99.6 127.8 100.9Z" fill="white"/>
</svg>
