<svg width="202" height="202" viewBox="0 0 202 202" fill="none" xmlns="http://www.w3.org/2000/svg">
<path fill-rule="evenodd" clip-rule="evenodd" d="M101.247 0.761719C156.639 0.761719 201.602 45.7274 201.602 101.122C201.602 156.516 156.639 201.481 101.247 201.481C45.8553 201.481 0.891602 156.516 0.891602 101.122C0.891602 45.7274 45.8553 0.761719 101.247 0.761719ZM124.458 67.8178C127.597 70.9575 132.419 71.406 134.998 68.7148C137.689 66.1358 137.24 61.4262 134.101 58.1743C130.849 55.0345 126.14 54.586 123.561 57.2772C120.869 59.9684 121.318 64.678 124.458 67.8178ZM128.27 79.2554L113.02 64.0053C110.89 61.8747 107.414 61.8747 105.284 64.0053L94.6313 74.7701L93.8464 75.4429L85.2125 84.0772H53.5922V104.373C50.3404 105.158 47.8736 108.635 47.8736 112.784C47.8736 116.932 50.3404 120.409 53.5922 121.306V130.052H56.5075V121.306C59.7593 120.409 62.2261 116.932 62.2261 112.784C62.2261 108.635 59.7593 105.158 56.5075 104.373V86.8805H136.904V84.0772H129.84C130.064 82.3952 129.616 80.6011 128.27 79.2554ZM95.7526 77.3492L102.368 84.0772H89.137L95.7526 77.3492ZM105.284 67.7057C107.414 65.5751 110.778 65.5751 112.908 67.7057L124.458 79.2554C125.691 80.4889 126.252 82.2831 125.915 83.9651H106.181L97.6588 75.4429L105.284 67.7057ZM136.904 112.671C136.904 117.381 140.044 121.306 144.08 121.306C148.005 121.306 151.256 117.381 151.256 112.671C151.256 107.85 148.005 104.037 144.08 104.037C140.044 104.037 136.904 107.85 136.904 112.671ZM67.9447 101.122V124.109C67.9447 127.361 70.5236 129.94 73.6632 129.94H125.355C128.494 129.94 131.073 127.361 131.073 124.109V101.122C131.073 97.9818 128.494 95.4028 125.355 95.4028H73.6632C70.5236 95.4028 67.9447 97.9818 67.9447 101.122ZM76.4665 98.3182H108.087V127.024H76.4665C73.3268 127.024 70.7479 124.445 70.7479 121.306V104.037C70.7479 100.897 73.3268 98.3182 76.4665 98.3182ZM122.439 98.3182C125.691 98.3182 128.27 100.897 128.27 104.037V121.306C128.27 124.445 125.691 127.024 122.439 127.024H111.002V98.3182H122.439Z" fill="#4EB9F4"/>
</svg>
