<svg width="179" height="179" viewBox="0 0 179 179" fill="none" xmlns="http://www.w3.org/2000/svg">
<circle cx="89.5" cy="89.5" r="89.5" fill="#FF5649"/>
<path opacity="0.26" fill-rule="evenodd" clip-rule="evenodd" d="M55 72.5H56.4C57.7 74.2 59.8 75.3 62.1 75.3C62.6333 75.3 63.1667 75.2667 63.7 75.2C64.6 78.5 69.2 81 74.8 81C79.5 81 83.6 79.2 85.3 76.7C87.3 79.3 90.8 81 94.7 81C100.4 81 105.1 77.3 105.9 72.5H106V81H111.7V81.1C112.167 81.0333 112.633 81 113.1 81C118.6 81 123 85.4 123 90.9V110.7C123 116.2 118.6 120.7 113.1 120.7C112.633 120.7 112.167 120.667 111.7 120.6V120.7H106V123.5H105.9C105.967 123.967 106 124.433 106 124.9C106 128.8 102.8 132 98.9 132H62.1C58.2 132 55 128.8 55 124.9C55 124.433 55.0333 123.967 55.1 123.5H55V72.5ZM117.3 106.5V95.2C117.3 92 114.8 89.5 111.7 89.5H106V112.2H111.7C114.8 112.2 117.3 109.6 117.3 106.5ZM63.5 117.8H69.2V86.7H63.5V117.8ZM77.7 117.8H83.3V86.6H77.7V117.8ZM91.8 117.8H97.5V86.6H91.8V117.8ZM77.7 47C83.4 47 88.2 51.3 88.9 56.9C90.6 56 92.6 55.5 94.7 55.5C100.9 55.5 106 59.9 106 65.4C106 70.9 100.9 75.3 94.7 75.3C90.8 75.3 87.3 73.6 85.3 71C83.6 73.5 79.5 75.3 74.8 75.3C69.2 75.3 64.6 72.8 63.7 69.5C63.1667 69.6333 62.6333 69.7 62.1 69.7C58.2 69.7 55 66.5 55 62.6C55 58.7 58.2 55.5 62.1 55.5C63.7 55.5 65.2 56.1 66.4 57C67.1 51.4 71.9 47 77.7 47Z" fill="white"/>
</svg>
