<svg width="29" height="27" viewBox="0 0 29 27" fill="none" xmlns="http://www.w3.org/2000/svg">
<path d="M24.2 0C26.8 0 29 2.20005 29 4.80005C29 7.50005 26.8 9.59998 24.2 9.59998C21.5 9.59998 19.3 7.50005 19.3 4.80005C19.3 2.20005 21.5 0 24.2 0ZM4.80005 8.69995C7.50005 8.69995 9.69995 10.8 9.69995 13.5C9.69995 16.2 7.50005 18.3 4.80005 18.3C2.20005 18.3 0 16.2 0 13.5C0 10.8 2.20005 8.69995 4.80005 8.69995ZM24.2 17.4C26.8 17.4 29 19.5 29 22.2C29 24.8 26.8 27 24.2 27C21.5 27 19.3 24.8 19.3 22.2C19.3 19.5 21.5 17.4 24.2 17.4ZM4.40002 14L3.40002 11.3L24.3 3.5L25.3 6.19995L4.40002 14ZM3.59998 14.8L4.90002 12.2L24.9 21.9L23.6 24.5L3.59998 14.8Z" fill="#272C2C"/>
</svg>
