<svg width="29" height="25" viewBox="0 0 29 25" fill="none" xmlns="http://www.w3.org/2000/svg">
<path fill-rule="evenodd" clip-rule="evenodd" d="M29 2.80005L26.3 5.5C26.3 5.5 26.3 5.3 26.3 6C26.3 6.46667 26.2333 6.93336 26.1 7.40002C26 11.3 24.8 16.3 19.9 20.3C10.3 28.1 0 21.2 0 21.2C8.2 21.2 8.20001 18.4 8.20001 18.4C6.30001 18.4 2.70001 14.8 2.70001 14.8C3.60001 15.7 5.40002 14.8 5.40002 14.8C0.900024 12 0.900024 9.19995 0.900024 9.19995C1.80002 10.1 3.59998 9.19995 3.59998 9.19995C-0.900024 5.49995 1.79999 0.900024 1.79999 0.900024C2.69999 5.50002 14.5 7.40002 14.5 7.40002L14.6 7.30005C14.6 6.90005 14.5 6 14.5 5.5C14.5 2.2 17.1 0 20.4 0C22.2 0 23.8 0.799976 24.8 2.09998L25.4 1.80005L28.1 0L26.3 3.69995L29 2.80005Z" fill="#252825"/>
</svg>
